<svg width="325" height="33" viewBox="0 0 325 33" fill="none" xmlns="http://www.w3.org/2000/svg">
<path d="M176.645 3.16159C176.688 3.444 176.665 3.73265 176.578 4.00466C176.49 4.27668 176.341 4.52458 176.142 4.72881C175.943 4.93303 175.698 5.08796 175.429 5.18131C175.16 5.27466 174.872 5.30387 174.59 5.26665H166.327V30.4797C166.37 30.7704 166.345 31.0672 166.254 31.3466C166.163 31.6259 166.007 31.88 165.801 32.0887C165.595 32.2975 165.342 32.4551 165.065 32.5491C164.787 32.643 164.491 32.6708 164.2 32.6301C163.913 32.6675 163.62 32.6371 163.347 32.5411C163.073 32.4452 162.825 32.2864 162.623 32.0775C162.422 31.8686 162.272 31.6154 162.185 31.3379C162.098 31.0605 162.077 30.7666 162.124 30.4797V5.26665H153.815C153.533 5.30393 153.245 5.27474 152.976 5.18139C152.706 5.08804 152.462 4.93311 152.263 4.72885C152.064 4.52459 151.915 4.27661 151.828 4.00458C151.741 3.73255 151.718 3.44393 151.761 3.16159C151.725 2.88462 151.754 2.60299 151.845 2.339C151.936 2.07502 152.087 1.83591 152.286 1.6406C152.486 1.44529 152.728 1.29914 152.993 1.21371C153.258 1.12829 153.54 1.10597 153.815 1.14845H174.587C174.863 1.10527 175.145 1.12709 175.411 1.21221C175.676 1.29732 175.919 1.44337 176.118 1.63877C176.318 1.83416 176.47 2.07353 176.561 2.33787C176.652 2.6022 176.681 2.88424 176.645 3.16159Z" fill="#333137"/>
<path d="M211.815 9.93384C211.816 11.1145 211.575 12.2828 211.106 13.3659C210.648 14.4428 209.988 15.4215 209.161 16.2491C208.336 17.0744 207.367 17.7413 206.302 18.2169C205.232 18.702 204.07 18.9514 202.896 18.9484L211.312 29.1527C211.587 29.512 211.76 29.9385 211.815 30.3878C211.813 30.677 211.752 30.9628 211.634 31.2267C211.515 31.4906 211.343 31.7267 211.129 31.9199C210.927 32.129 210.685 32.2957 210.418 32.41C210.151 32.5244 209.864 32.5843 209.574 32.5861C209.285 32.5987 208.999 32.5274 208.749 32.3809C208.51 32.2214 208.294 32.0291 208.109 31.8094L197.585 18.9511H191.82V30.4824C191.82 31.8858 191.15 32.5874 189.811 32.5874C189.526 32.6273 189.235 32.6003 188.962 32.5086C188.689 32.4169 188.441 32.263 188.238 32.059C188.034 31.855 187.881 31.6064 187.789 31.3328C187.698 31.0592 187.671 30.7681 187.71 30.4824V3.1696C187.672 2.89583 187.697 2.61676 187.785 2.35454C187.872 2.09232 188.019 1.85414 188.215 1.65881C188.41 1.46349 188.648 1.3164 188.91 1.22921C189.171 1.14201 189.45 1.11708 189.723 1.15643H203.765C204.902 1.14421 206.024 1.41137 207.035 1.93453C208.007 2.43839 208.87 3.13029 209.574 3.97031C210.278 4.81581 210.835 5.77489 211.22 6.80684C211.606 7.80451 211.807 8.86405 211.815 9.93384V9.93384ZM207.614 9.97913C207.611 9.41507 207.503 8.85655 207.295 8.33238C207.084 7.78745 206.792 7.27797 206.427 6.82151C206.072 6.37363 205.639 5.99399 205.149 5.70102C204.666 5.41308 204.115 5.26285 203.553 5.26665H191.822V14.7382H203.463C204.039 14.7389 204.605 14.5893 205.106 14.3039C205.618 14.0206 206.07 13.6395 206.435 13.182C206.803 12.7203 207.096 12.2032 207.303 11.6499C207.507 11.1165 207.613 10.5504 207.614 9.97913V9.97913Z" fill="#333137"/>
<path d="M227.079 3.25352C227.079 2.09092 226.139 1.14844 224.98 1.14844C223.82 1.14844 222.88 2.09092 222.88 3.25352V30.3878C222.88 31.5504 223.82 32.4929 224.98 32.4929C226.139 32.4929 227.079 31.5504 227.079 30.3878V3.25352Z" fill="#333137"/>
<path d="M246.529 12.2215C246.536 12.6679 246.691 13.0992 246.971 13.4471C247.25 13.795 247.637 14.0396 248.071 14.1423C248.504 14.245 248.96 14.2 249.365 14.0142C249.77 13.8285 250.102 13.5127 250.308 13.1168V13.1168L251.962 10.0791L262.172 31.4244L262.188 31.4563L262.261 31.6069C262.519 32.059 262.943 32.3928 263.442 32.5379C263.941 32.683 264.477 32.628 264.936 32.3845C265.395 32.1411 265.743 31.7282 265.904 31.2331C266.065 30.7379 266.028 30.1993 265.801 29.731L265.816 29.723L251.792 0L246.679 11.4061C246.572 11.6644 246.521 11.9421 246.529 12.2215V12.2215Z" fill="#00D5F2"/>
<path d="M238.14 30.9966C238.141 31.4436 238.291 31.8775 238.566 32.2295C238.84 32.5815 239.225 32.8316 239.657 32.94C240.09 33.0484 240.546 33.0091 240.954 32.8282C241.362 32.6473 241.698 32.3352 241.908 31.9413V31.9413L241.964 31.8174L241.997 31.7441L247.188 20.1528C247.293 19.9109 247.349 19.6505 247.353 19.3868C247.358 19.1231 247.31 18.8611 247.214 18.6157C247.117 18.3704 246.973 18.1466 246.79 17.957C246.607 17.7674 246.389 17.6158 246.147 17.5108C245.906 17.4058 245.646 17.3495 245.383 17.3451C245.12 17.3407 244.858 17.3884 244.614 17.4852C244.369 17.5821 244.146 17.7263 243.956 17.9097C243.767 18.0931 243.616 18.312 243.511 18.554L238.313 30.1373L238.326 30.1453C238.202 30.4118 238.138 30.7026 238.14 30.9966Z" fill="#333137"/>
<path d="M281.187 3.88243V29.723C281.187 31.2525 280.267 32.4916 279.132 32.4902C277.998 32.4902 277.078 31.2498 277.078 29.723V3.88642C277.078 2.37156 277.965 1.0885 279.089 1.05786C280.488 1.01522 281.187 1.95677 281.187 3.88243Z" fill="#00D5F2"/>
<path d="M278.352 28.6558C278.099 28.7499 277.869 28.8954 277.676 29.0833C277.483 29.2711 277.331 29.4972 277.229 29.7471C277.128 29.997 277.079 30.2652 277.087 30.5349C277.094 30.8046 277.157 31.0699 277.272 31.3138C277.446 31.6517 277.706 31.9381 278.024 32.1443C278.343 32.3505 278.71 32.4693 279.089 32.4889V32.4889H293.046C293.333 32.4816 293.616 32.4211 293.881 32.3104C294.134 32.2162 294.365 32.0703 294.558 31.8819C294.752 31.6936 294.905 31.4669 295.006 31.2164C295.108 30.9658 295.156 30.6967 295.149 30.4263C295.141 30.1559 295.077 29.8901 294.962 29.6457C294.774 29.2853 294.49 28.9842 294.142 28.7762C293.794 28.5682 293.394 28.4615 292.989 28.4679V28.4679L279.281 28.4533V28.4692C278.962 28.4666 278.645 28.5301 278.352 28.6558V28.6558Z" fill="#00D5F2"/>
<path d="M310.329 3.88243V29.723C310.329 31.2525 309.409 32.4916 308.274 32.4902C307.14 32.4902 306.222 31.2498 306.222 29.723V3.88642C306.222 2.37156 307.108 1.0885 308.231 1.05786C309.63 1.01522 310.329 1.95677 310.329 3.88243Z" fill="#00D5F2"/>
<path d="M307.495 28.6558C307.243 28.75 307.013 28.8957 306.82 29.0836C306.627 29.2714 306.475 29.4975 306.373 29.7473C306.272 29.9972 306.223 30.2653 306.23 30.535C306.238 30.8046 306.301 31.0698 306.416 31.3138C306.59 31.6519 306.849 31.9384 307.168 32.1446C307.487 32.3508 307.855 32.4695 308.234 32.4889H322.191C322.478 32.4815 322.761 32.421 323.025 32.3104C323.278 32.2162 323.509 32.0703 323.703 31.8819C323.897 31.6936 324.049 31.4669 324.151 31.2162C324.252 30.9656 324.3 30.6965 324.293 30.4261C324.285 30.1557 324.221 29.89 324.105 29.6457C323.918 29.2852 323.634 28.984 323.285 28.776C322.937 28.568 322.538 28.4613 322.132 28.4679V28.4679L308.423 28.4533V28.4692C308.104 28.4668 307.788 28.5303 307.495 28.6558V28.6558Z" fill="#00D5F2"/>
<path d="M40.0336 30.5703C40.0336 32.1877 39.4248 32.996 38.2073 32.9951C37.7744 32.9685 37.3563 32.8274 36.9953 32.5864C36.6344 32.3454 36.3436 32.013 36.1523 31.6228L22.0891 10.2083V30.5703C22.0891 32.0048 21.4041 32.7216 20.0341 32.7207C18.6943 32.7207 18.0248 32.0039 18.0257 30.5703V3.2575C18.0257 1.61074 18.6189 0.787354 19.8055 0.787354C20.2245 0.824235 20.6276 0.965428 20.9784 1.1981C21.3291 1.43076 21.6163 1.74754 21.8139 2.11968L35.8293 23.6262V3.25217C35.8293 2.69387 36.0506 2.15845 36.4444 1.76367C36.8383 1.36889 37.3725 1.14711 37.9295 1.14711C38.4865 1.14711 39.0206 1.36889 39.4145 1.76367C39.8084 2.15845 40.0296 2.69387 40.0296 3.25217L40.0336 30.5703Z" fill="#333137"/>
<path d="M78.7473 16.8366C78.755 18.9014 78.3515 20.947 77.5602 22.8534C76.7917 24.7243 75.6763 26.4323 74.2731 27.8869C72.8615 29.344 71.179 30.51 69.3204 31.319C67.3691 32.1684 65.2615 32.5973 63.1342 32.578H55.967C54.5669 32.578 53.8668 31.9066 53.8668 30.5636V3.24681C53.8668 1.90471 54.5669 1.23363 55.967 1.23363H63.0425C65.1222 1.22324 67.1818 1.64372 69.0918 2.46871C70.9497 3.263 72.6447 4.39552 74.091 5.80888C75.5326 7.2296 76.6875 8.91555 77.4925 10.7745C78.3297 12.6848 78.7572 14.7501 78.7473 16.8366V16.8366ZM74.6838 16.9511C74.6924 15.4025 74.3754 13.8695 73.7534 12.4519C73.1499 11.0744 72.2947 9.82225 71.2318 8.75999C70.1692 7.70116 68.9139 6.8563 67.5339 6.27118C66.1133 5.66087 64.5827 5.34977 63.0371 5.3572H58.0725V28.4652H63.1395C64.6799 28.4751 66.2049 28.1572 67.6137 27.5325C68.9827 26.9295 70.2287 26.0781 71.289 25.0211C72.3429 23.9646 73.1873 22.7172 73.7773 21.3452C74.3819 19.9616 74.692 18.4669 74.6878 16.9565L74.6838 16.9511Z" fill="#333137"/>
<path d="M112.959 21.0521C112.966 22.5808 112.649 24.0935 112.029 25.4901C111.422 26.8676 110.571 28.1235 109.518 29.1966C108.468 30.2638 107.23 31.125 105.865 31.736C104.48 32.3594 102.978 32.6775 101.46 32.6687C99.9271 32.6744 98.4104 32.3566 97.0083 31.736C95.6245 31.1325 94.363 30.2795 93.2865 29.2193C92.2178 28.1624 91.3582 26.9125 90.753 25.5354C90.1288 24.1236 89.8116 22.5949 89.8225 21.0508V3.2508C89.8225 2.6925 90.0437 2.15708 90.4376 1.7623C90.8315 1.36752 91.3657 1.14574 91.9227 1.14574C92.4797 1.14574 93.0139 1.36752 93.4077 1.7623C93.8016 2.15708 94.0228 2.6925 94.0228 3.2508V21.0814C94.0142 22.1072 94.2245 23.1229 94.6396 24.0605C95.0291 24.9465 95.5872 25.748 96.2825 26.4201C96.9669 27.0766 97.7633 27.6046 98.6339 27.9789C99.5129 28.3601 100.461 28.5551 101.419 28.5518C102.441 28.5612 103.453 28.3503 104.387 27.9336C106.17 27.1451 107.583 25.7012 108.336 23.8993C108.714 23.0083 108.908 22.0497 108.906 21.0814V3.25617C108.906 1.82081 109.561 1.10267 110.869 1.10179C111.158 1.06367 111.452 1.09344 111.727 1.18876C112.002 1.28407 112.252 1.44231 112.456 1.65093C112.659 1.85956 112.812 2.11281 112.901 2.39073C112.99 2.66865 113.014 2.96357 112.97 3.25214L112.959 21.0521Z" fill="#333137"/>
<path d="M142.24 24.3936C142.252 25.5307 142.011 26.6562 141.535 27.6884C141.072 28.6856 140.405 29.5744 139.578 30.2972C138.71 31.0482 137.705 31.6229 136.618 31.9892C135.423 32.3956 134.169 32.597 132.908 32.5848C131.858 32.576 130.818 32.3821 129.835 32.0119C128.802 31.6388 127.834 31.1061 126.966 30.4331C126.13 29.7932 125.412 29.0107 124.846 28.1215C124.312 27.2972 124.027 26.3358 124.025 25.3529C124.025 24.1023 124.71 23.477 126.08 23.477C126.901 23.477 127.525 24.0099 127.951 25.0758C128.243 26.1575 128.897 27.1061 129.802 27.7638C130.707 28.4215 131.81 28.7485 132.927 28.6904C133.616 28.6922 134.302 28.5843 134.958 28.3706C135.579 28.1723 136.164 27.8705 136.686 27.478C137.178 27.108 137.59 26.641 137.895 26.1057C138.196 25.5842 138.354 24.9921 138.352 24.3896C138.347 23.3627 138.022 22.3631 137.422 21.5304C136.745 20.5698 135.973 19.6806 135.117 18.8764C134.203 18.0069 133.199 17.1453 132.104 16.2917C131.049 15.4738 130.043 14.5952 129.09 13.6603C128.222 12.8145 127.449 11.8763 126.784 10.8624C126.176 9.94773 125.853 8.87309 125.854 7.77411C125.849 6.87774 126.052 5.9925 126.447 5.18805C126.846 4.37485 127.396 3.64514 128.067 3.03769C128.758 2.40859 129.554 1.90541 130.418 1.55081C131.303 1.18377 132.252 0.997141 133.21 1.00187C134.022 1.01163 134.826 1.1664 135.584 1.45888C136.39 1.75541 137.15 2.16352 137.843 2.6713C138.499 3.14488 139.064 3.73401 139.51 4.40999C139.919 5.01062 140.141 5.71885 140.15 6.44577C140.185 6.71657 140.157 6.99193 140.068 7.25001C139.979 7.50809 139.831 7.74186 139.636 7.93277C139.441 8.12368 139.205 8.26651 138.945 8.34997C138.686 8.43344 138.41 8.45524 138.141 8.41365C137.933 8.40748 137.729 8.35505 137.543 8.26012C137.358 8.16519 137.195 8.03011 137.068 7.8647C136.749 7.49876 136.399 7.1022 136.018 6.67496C135.629 6.24024 135.202 5.84199 134.741 5.48519C134.249 5.11272 133.645 4.91911 133.029 4.93624C132.249 4.93366 131.486 5.16571 130.838 5.60241C130.527 5.78809 130.269 6.05317 130.093 6.37071C129.916 6.68825 129.827 7.04698 129.833 7.41041C129.864 8.19775 130.152 8.95321 130.652 9.56077C131.36 10.4587 132.169 11.2723 133.062 11.9856C134.821 13.4503 136.201 14.6019 137.201 15.4403C138.202 16.2788 138.808 16.8051 139.021 17.0192C140.016 17.9753 140.812 19.119 141.365 20.3845C141.917 21.6501 142.215 23.0125 142.24 24.3936Z" fill="#333137"/>
<path d="M4.19908 3.3441C4.19908 2.1815 3.2591 1.23902 2.09957 1.23902C0.940044 1.23902 6.10352e-05 2.1815 6.10352e-05 3.3441V30.4783C6.10352e-05 31.641 0.940044 32.5834 2.09957 32.5834C3.2591 32.5834 4.19908 31.641 4.19908 30.4783V3.3441Z" fill="#333137"/>
</svg>
